<?xml version="1.0" standalone="no"?>
<!DOCTYPE svg PUBLIC "-//W3C//DTD SVG 20010904//EN"
 "http://www.w3.org/TR/2001/REC-SVG-20010904/DTD/svg10.dtd">
<svg version="1.0" xmlns="http://www.w3.org/2000/svg"
 width="300.000000pt" height="302.000000pt" viewBox="0 0 300.000000 302.000000"
 preserveAspectRatio="xMidYMid meet">
<metadata>
Created by potrace 1.10, written by Peter Selinger 2001-2011
</metadata>
<g transform="translate(0.000000,302.000000) scale(0.100000,-0.100000)"
fill="#000000" stroke="none">
<path d="M1383 2789 c-23 -11 -44 -28 -48 -37 -4 -12 0 -11 17 6 13 12 42 28
63 36 22 8 33 15 25 15 -8 1 -34 -8 -57 -20z"/>
<path d="M1477 2801 c-10 -4 -19 -11 -19 -16 0 -6 -4 -9 -10 -7 -10 3 -27 -14
-46 -46 -20 -36 5 -26 46 17 20 21 46 41 57 43 15 3 17 5 5 9 -8 4 -23 3 -33
0z"/>
<path d="M1543 2804 c-7 -3 -9 -12 -6 -20 3 -10 -2 -14 -19 -14 -25 0 -63 -31
-52 -43 7 -7 -66 -28 -76 -22 -9 6 -44 -44 -36 -52 9 -9 26 8 26 25 0 11 3 13
8 5 10 -15 100 27 94 45 -2 6 3 12 12 12 9 0 16 5 16 11 0 12 43 1 48 -12 2
-5 8 -9 14 -9 6 0 3 9 -6 19 -11 12 -14 21 -7 26 6 3 11 2 11 -3 0 -5 10 -8
23 -8 26 3 77 -20 77 -34 0 -13 -27 -13 -35 0 -11 17 -38 12 -31 -6 6 -14 0
-16 -44 -12 -28 3 -53 1 -56 -3 -4 -7 33 -12 62 -8 4 0 10 -5 15 -13 7 -10 14
-10 38 5 33 19 45 22 36 7 -3 -5 2 -11 12 -11 10 -1 25 -3 33 -4 8 -1 24 -3
36 -4 23 -1 28 -27 7 -35 -12 -5 -12 -8 -1 -20 7 -8 16 -12 19 -10 12 7 94
-43 94 -57 0 -8 17 -30 38 -50 21 -20 37 -46 37 -58 0 -13 -4 -19 -10 -16 -6
4 -8 10 -6 14 3 4 -1 8 -9 8 -11 0 -9 -8 9 -31 30 -41 77 -133 75 -149 -2 -11
11 -47 31 -87 4 -9 11 -34 14 -57 4 -23 18 -56 32 -74 13 -18 24 -38 24 -45 0
-7 5 -14 11 -16 14 -5 -12 -136 -36 -182 -21 -40 -18 -46 5 -11 11 17 20 38
20 48 0 9 4 17 9 17 11 0 20 -35 27 -108 7 -66 14 -80 15 -31 0 29 2 31 10 14
5 -13 7 8 3 60 -6 78 -22 122 -39 107 -5 -4 -5 -1 -1 6 4 6 18 12 32 12 26 0
30 11 13 42 -9 16 -13 18 -20 7 -6 -10 -8 -9 -8 6 0 23 -4 39 -20 79 -6 16
-14 50 -16 75 l-5 46 13 -45 c17 -60 30 -38 28 46 -2 68 -40 169 -87 231 -13
17 -24 36 -24 42 0 6 -4 11 -9 11 -5 0 -17 12 -26 27 l-18 26 39 -22 c49 -28
22 -7 -83 67 -45 31 -112 84 -149 117 -38 33 -75 58 -84 57 -8 -2 -12 -1 -8 4
10 10 -12 35 -24 28 -13 -8 -108 18 -102 28 6 9 5 9 -13 2z m182 -83 c3 -5 1
-12 -5 -16 -14 -9 -52 4 -45 16 8 12 42 12 50 0z m237 -213 c18 -23 33 -51 33
-63 0 -11 5 -20 12 -20 6 0 15 -4 20 -9 5 -5 3 -6 -4 -2 -19 10 -15 -13 7 -54
20 -37 27 -28 10 15 -6 16 -6 24 0 20 9 -5 50 -126 50 -147 0 -5 -4 -7 -8 -4
-4 2 -6 -10 -4 -28 2 -17 -1 -47 -6 -66 l-10 -35 -2 30 c-1 17 -2 39 -1 50 2
17 0 17 -8 5 -8 -11 -9 -4 -6 25 3 22 3 34 -1 28 -10 -23 -23 -14 -30 22 -3
19 -10 35 -14 35 -4 0 -11 24 -15 53 -7 44 -9 48 -15 27 -8 -24 -8 -24 -9 -2
-1 12 -5 30 -10 40 -18 36 -30 82 -19 76 5 -4 2 5 -7 20 -28 42 0 30 37 -16z"/>
<path d="M1279 2684 c-27 -17 -56 -23 -127 -28 -86 -5 -142 -22 -157 -46 -9
-14 2 -12 29 5 13 9 41 17 62 20 35 3 36 3 14 -7 -14 -5 -40 -16 -59 -24 -18
-8 -42 -12 -52 -9 -13 5 -19 1 -19 -10 0 -11 5 -15 14 -12 7 3 18 1 24 -5 7
-7 20 -4 40 11 17 11 35 21 40 21 6 0 12 5 14 10 2 6 29 13 61 15 32 3 55 1
52 -4 -3 -5 1 -11 7 -14 8 -2 1 -12 -17 -23 -16 -11 -32 -26 -34 -34 -11 -46
-11 -52 3 -24 8 18 20 36 28 40 17 12 57 60 41 50 -7 -4 -13 -2 -13 3 0 6 14
11 30 11 17 0 29 3 29 8 -1 4 -1 14 0 22 1 12 3 13 10 1 5 -7 14 -10 21 -6 9
6 9 9 -1 16 -10 6 -8 9 8 9 30 0 38 17 10 22 -13 3 -38 -5 -58 -18z"/>
<path d="M1626 2658 c-20 -28 -12 -37 12 -15 10 10 21 15 24 12 2 -3 5 2 5 10
0 22 -24 18 -41 -7z"/>
<path d="M1530 2601 c12 -18 24 -30 27 -27 10 9 -6 35 -28 47 l-22 11 23 -31z"/>
<path d="M1687 2594 c-3 -3 -3 -12 0 -20 7 -20 40 -17 52 4 8 15 5 18 -18 20
-15 1 -30 -1 -34 -4z"/>
<path d="M1126 2575 c-11 -8 -17 -15 -13 -15 4 0 1 -13 -8 -30 -8 -16 -15 -39
-15 -51 0 -29 7 -21 14 15 3 15 17 43 31 62 27 36 23 43 -9 19z"/>
<path d="M930 2559 c-81 -64 -129 -132 -145 -209 -4 -19 -16 -51 -28 -70 l-20
-35 22 23 c12 12 23 22 25 22 3 0 -2 -24 -10 -52 -7 -29 -14 -72 -14 -96 0
-53 19 -181 30 -202 5 -9 4 -51 -1 -95 -6 -48 -6 -82 -1 -87 6 -6 12 -6 16 1
4 6 22 11 41 11 34 0 54 13 36 24 -5 4 -12 2 -16 -4 -4 -6 -13 -5 -25 3 -23
14 -27 32 -5 23 12 -4 13 -2 2 17 -6 12 -16 25 -22 29 -5 4 -2 10 8 14 18 6
24 54 7 54 -5 0 -7 13 -3 30 4 20 2 30 -7 30 -7 0 -10 8 -7 20 3 11 1 18 -3
15 -13 -8 -6 250 7 266 6 8 13 25 15 39 1 14 10 31 18 38 8 8 9 11 3 7 -16 -8
-17 7 -2 22 9 9 7 11 -7 9 -10 -2 -19 -9 -20 -17 -2 -32 -5 -37 -18 -42 -10
-4 -13 -1 -9 9 3 7 9 14 14 14 4 0 6 7 3 15 -3 8 3 29 14 47 24 39 112 127
112 112 0 -5 -5 -15 -12 -22 -12 -12 -38 -79 -38 -97 1 -5 7 -2 14 7 7 10 17
14 21 10 4 -4 5 5 2 19 -4 16 -1 34 9 48 9 12 13 29 10 38 -5 13 -4 14 8 4 8
-7 17 -8 20 -3 3 6 0 14 -7 20 -8 7 -19 5 -37 -9z"/>
<path d="M1504 2565 c13 -35 12 -39 -11 -43 -37 -6 -26 -18 17 -19 39 -2 39
-2 28 25 -7 15 -18 34 -26 42 -13 13 -14 13 -8 -5z"/>
<path d="M1425 2561 c3 -5 1 -11 -4 -13 -5 -1 -11 -28 -15 -58 l-6 -55 16 50
c9 28 20 55 25 61 6 8 4 14 -6 18 -9 3 -14 2 -10 -3z"/>
<path d="M1272 2538 c-7 -13 -21 -34 -32 -48 -11 -14 -22 -43 -26 -65 -3 -22
-9 -44 -12 -49 -3 -5 2 -6 12 -3 11 4 16 3 14 -4 -2 -6 -8 -11 -13 -11 -6 -1
-15 -8 -22 -17 -9 -11 -12 -12 -13 -3 0 7 -4 11 -10 7 -5 -3 -8 -36 -6 -73 3
-50 0 -71 -12 -84 -8 -10 -18 -18 -21 -18 -10 0 -12 81 -3 94 8 10 23 116 16
116 -1 0 -10 -26 -20 -57 -19 -59 -24 -147 -11 -195 10 -36 25 -36 19 0 -2 20
4 34 22 51 l26 24 0 -29 c0 -16 3 -39 6 -51 5 -17 0 -22 -25 -28 -30 -6 -53
-25 -31 -25 6 0 9 -4 6 -9 -4 -5 4 -7 16 -3 21 5 21 6 2 13 -10 4 -14 8 -9 8
6 1 21 4 34 8 14 4 22 2 18 -3 -3 -6 -2 -16 4 -24 7 -12 9 -11 10 5 1 11 1 23
0 28 -1 4 10 12 23 17 44 16 135 112 141 148 3 17 3 32 0 32 -2 0 -12 -15 -21
-32 -26 -52 -46 -71 -57 -56 -6 9 -7 8 -3 -4 3 -12 -7 -27 -32 -48 -47 -38
-57 -38 -57 3 1 17 -3 35 -8 38 -5 3 -10 34 -11 68 -2 53 0 64 16 72 28 15 30
8 13 -41 -8 -24 -13 -45 -10 -48 5 -6 35 61 35 79 0 7 7 20 15 29 15 17 11 55
-5 45 -9 -6 17 101 31 128 6 10 15 14 22 10 7 -4 7 0 -2 10 -17 21 -16 21 -29
-5z"/>
<path d="M1620 2550 c0 -5 5 -10 10 -10 6 0 16 -11 22 -25 6 -14 19 -25 29
-25 10 0 21 -4 24 -10 3 -5 12 -10 18 -10 7 0 6 4 -3 10 -8 5 -11 13 -6 17 4
4 13 1 19 -8 7 -9 17 -14 22 -12 6 2 20 -4 30 -12 19 -16 19 -16 -2 -5 -18 8
-21 8 -18 -2 3 -7 18 -19 33 -25 15 -7 52 -35 82 -63 30 -28 66 -60 79 -73
l25 -22 -18 30 c-10 17 -30 42 -43 57 -14 14 -25 30 -25 35 1 9 -99 93 -110
93 -4 0 -5 8 -2 18 5 16 5 16 -5 0 -11 -16 -14 -16 -46 3 -20 12 -35 16 -35
10 0 -6 -7 -11 -15 -11 -8 0 -15 8 -15 18 0 14 2 15 10 2 8 -13 10 -12 10 4 0
15 -5 17 -26 12 -17 -5 -23 -3 -19 4 3 5 -1 10 -9 10 -9 0 -16 -4 -16 -10z"/>
<path d="M1125 2486 c-9 -31 -15 -62 -13 -68 3 -7 11 17 20 53 20 80 15 91 -7
15z"/>
<path d="M1301 2479 c-19 -40 -21 -53 -11 -62 10 -9 11 -9 6 0 -3 6 -1 13 4
15 6 2 13 19 15 38 3 19 9 36 15 38 12 4 14 22 2 22 -5 0 -19 -23 -31 -51z"/>
<path d="M1436 2505 c-9 -25 -7 -55 4 -55 6 0 9 3 8 8 0 4 2 15 7 25 4 10 3
23 -2 28 -7 7 -12 5 -17 -6z"/>
<path d="M1184 2474 c-20 -30 -32 -120 -15 -110 6 4 11 21 11 37 0 16 7 45 14
64 18 41 13 45 -10 9z"/>
<path d="M1379 2400 c-3 -71 -3 -77 6 -135 7 -48 9 -50 26 -28 12 14 12 16 0
8 -11 -6 -12 -2 -6 21 4 16 9 57 12 92 3 34 9 60 14 56 5 -3 9 -1 9 4 0 18
-13 20 -29 5 -15 -15 -16 -14 -22 13 -5 21 -7 11 -10 -36z"/>
<path d="M1308 2395 c-15 -19 -15 -25 -4 -34 11 -9 15 -5 19 21 2 18 4 34 3
35 0 0 -9 -9 -18 -22z"/>
<path d="M1271 2308 c0 -25 -4 -54 -8 -64 -5 -12 -3 -15 6 -9 8 4 16 2 21 -5
4 -7 8 5 8 29 0 23 3 51 7 64 5 20 5 20 -9 -3 l-14 -25 -5 30 c-3 22 -4 17 -6
-17z"/>
<path d="M1410 2191 c0 -7 -4 -10 -9 -7 -5 3 -7 -13 -6 -37 4 -72 7 -74 15
-12 5 33 6 62 4 64 -2 2 -4 -1 -4 -8z"/>
<path d="M1010 2132 c0 -7 -7 -12 -15 -12 -8 0 -14 -3 -13 -7 1 -5 -6 -26 -15
-47 -20 -45 -17 -59 4 -18 8 15 16 29 19 32 13 13 31 53 26 58 -3 3 -6 0 -6
-6z"/>
<path d="M1860 2112 c-55 -11 -71 -20 -105 -56 -22 -23 -49 -46 -59 -49 -15
-6 -17 -10 -8 -19 7 -7 12 -26 12 -44 0 -23 5 -33 20 -37 12 -3 20 -14 20 -26
0 -23 48 -97 90 -140 16 -16 45 -32 65 -35 53 -10 124 3 136 25 7 14 6 19 -3
19 -9 0 -9 3 2 10 8 5 11 10 5 10 -5 0 -17 -5 -25 -10 -10 -6 -11 -10 -2 -10
6 0 12 -5 12 -11 0 -15 -125 -2 -160 16 -41 21 -75 65 -114 146 -20 41 -36 78
-36 82 0 13 64 67 105 89 30 17 57 22 111 23 66 0 69 1 50 16 -25 19 -33 19
-116 1z"/>
<path d="M1868 2075 c-47 -13 -123 -54 -115 -62 3 -2 20 5 38 16 18 11 36 18
39 16 4 -2 31 2 61 10 64 18 72 18 64 5 -3 -6 1 -7 10 -4 12 5 13 9 4 20 -14
17 -38 17 -101 -1z"/>
<path d="M2009 2075 c-5 -4 18 -111 27 -123 1 -2 13 0 28 4 30 7 35 24 7 24
-13 0 -21 10 -25 33 -7 36 -28 72 -37 62z"/>
<path d="M1343 2043 c-24 -2 -43 -8 -43 -14 0 -5 -7 -9 -15 -9 -8 0 -15 -5
-15 -11 0 -5 -6 -7 -12 -3 -10 5 -10 4 -2 -5 9 -10 18 -9 39 5 33 22 178 32
224 16 17 -6 31 -7 31 -2 0 24 -86 34 -207 23z"/>
<path d="M1342 2008 c-45 -10 -54 -35 -11 -31 73 6 106 11 122 18 9 4 34 4 55
-1 20 -4 40 -7 43 -6 3 0 16 -19 29 -43 23 -41 23 -44 7 -69 -18 -27 -11 -36
11 -14 8 8 12 8 12 1 0 -13 -30 -39 -30 -27 0 5 -5 2 -10 -6 -5 -8 -7 -25 -4
-36 6 -22 -17 -68 -43 -91 -8 -6 -15 -20 -16 -31 0 -11 -5 -18 -9 -16 -4 3
-14 2 -20 -3 -7 -4 -17 -8 -23 -8 -5 -1 -35 -8 -65 -18 -30 -9 -70 -18 -87
-19 -38 -3 -46 -28 -8 -28 13 0 50 7 82 16 32 9 70 16 85 16 15 -1 30 3 33 7
3 5 -5 7 -17 5 -21 -4 -21 -4 -3 4 11 5 25 7 31 5 17 -6 29 15 73 125 41 101
47 138 32 177 -5 11 -4 28 1 38 5 11 5 17 -2 17 -5 0 -10 -5 -10 -10 0 -6 -12
-2 -27 7 -15 10 -27 17 -28 15 0 -2 -13 1 -28 7 -34 13 -115 13 -175 -1z"/>
<path d="M1829 2006 c-12 -6 -29 -22 -38 -36 l-16 -24 40 27 c52 36 103 36
144 1 29 -24 40 -23 23 2 -21 32 -113 50 -153 30z"/>
<path d="M1020 1991 c-8 -6 -17 -8 -21 -5 -4 2 -9 -5 -12 -16 -3 -11 -1 -20 5
-20 5 0 6 -5 3 -10 -11 -18 -15 -59 -6 -64 4 -3 17 4 27 16 11 12 13 18 7 14
-8 -4 -13 -1 -13 8 0 8 5 16 10 18 8 2 24 68 17 68 -1 0 -9 -4 -17 -9z"/>
<path d="M1731 1986 c-9 -11 -8 -18 4 -30 18 -18 35 -13 35 11 0 10 -6 13 -16
9 -12 -4 -15 -2 -10 9 7 19 2 19 -13 1z"/>
<path d="M1231 1954 c-20 -25 -24 -38 -18 -49 1 -2 -7 -11 -18 -18 -12 -10
-20 -28 -20 -49 -1 -29 3 -37 27 -47 16 -7 35 -25 43 -41 15 -28 70 -80 85
-80 5 0 -13 22 -40 50 -28 27 -50 55 -50 63 0 8 -10 27 -22 43 -12 16 -18 26
-13 22 4 -4 14 0 21 10 13 16 13 16 14 0 0 -10 8 -18 17 -18 15 0 14 -2 -3
-14 -23 -17 -14 -30 16 -21 14 5 19 12 15 25 -8 24 37 76 78 89 33 11 86 2
111 -18 6 -6 26 -12 43 -15 25 -5 34 -1 47 19 9 14 15 25 14 26 -22 6 -48 3
-52 -7 -3 -7 -14 -12 -24 -11 -11 0 -18 6 -15 12 8 22 -102 18 -156 -6 -28
-12 -51 -26 -51 -31 0 -5 -4 -6 -10 -3 -6 3 -7 -1 -4 -9 3 -9 2 -16 -4 -16 -6
0 -12 6 -15 13 -3 9 -7 9 -20 -1 -9 -8 -24 -12 -34 -9 -16 4 -15 6 5 12 12 4
22 15 22 25 0 10 12 32 26 49 14 17 21 31 16 31 -6 0 -20 -12 -31 -26z"/>
<path d="M1820 1941 c-39 -18 -51 -46 -21 -48 13 -1 18 3 14 13 -7 19 11 18
27 -1 20 -25 59 -19 66 10 3 14 9 25 13 25 15 -1 33 -19 28 -27 -4 -6 7 -10
24 -9 l30 1 -31 28 c-32 29 -100 39 -100 15 0 -10 -2 -10 -8 -2 -5 9 -16 7
-42 -5z"/>
<path d="M1346 1871 c-33 -22 -51 -49 -41 -59 4 -4 13 2 21 12 11 15 16 17 28
7 11 -9 20 -10 35 -2 14 8 21 8 24 -2 3 -6 8 2 12 20 7 29 10 31 32 22 37 -14
51 -10 23 6 -36 20 -100 18 -134 -4z"/>
<path d="M1805 1860 c-2 -4 11 -12 30 -17 35 -11 50 -6 37 12 -8 11 -61 14
-67 5z"/>
<path d="M1957 1863 c-12 -11 -8 -23 6 -17 7 2 22 -4 32 -16 20 -22 35 -26 35
-10 0 6 -7 10 -15 10 -8 0 -20 9 -27 20 -14 21 -21 24 -31 13z"/>
<path d="M1000 1850 c0 -5 -6 -10 -14 -10 -8 0 -18 -4 -21 -10 -4 -6 26 -9 83
-9 79 1 89 4 85 18 -4 15 -11 16 -55 7 -40 -8 -52 -8 -56 2 -4 14 -22 16 -22
2z"/>
<path d="M1500 1825 c-7 -8 -16 -12 -21 -9 -14 8 -49 -15 -49 -33 0 -9 -8 -22
-17 -30 -16 -12 -15 -13 7 -2 41 20 79 49 90 70 13 23 7 25 -10 4z"/>
<path d="M1010 1805 c-54 -9 -62 -12 -46 -21 12 -8 15 -14 7 -18 -6 -4 -11
-12 -11 -17 0 -6 5 -7 10 -4 6 3 10 -1 10 -9 0 -8 -9 -18 -20 -21 -11 -3 -20
-10 -20 -14 0 -4 -15 -16 -34 -26 -34 -18 -39 -45 -9 -45 8 0 12 4 8 9 -7 13
24 43 37 35 6 -4 8 -2 5 3 -7 11 20 40 29 31 2 -3 0 -17 -6 -32 -6 -18 -6 -25
0 -21 6 3 10 -1 10 -11 0 -13 3 -14 15 -4 8 7 15 18 15 24 0 6 -5 4 -10 -4 -7
-10 -9 2 -5 40 3 30 12 60 19 65 7 6 14 15 14 20 3 18 37 11 36 -8 -1 -9 12
-32 30 -50 17 -18 45 -50 61 -72 17 -21 39 -49 51 -63 l21 -25 22 37 c13 20
20 42 18 49 -4 8 -6 6 -6 -4 -1 -9 -10 -24 -21 -34 -19 -18 -20 -17 -20 3 0
12 -9 26 -20 32 -11 6 -30 30 -41 53 -12 23 -36 58 -53 77 l-31 35 -65 -10z"/>
<path d="M1313 1771 c-13 -35 -13 -34 21 -21 16 6 27 6 31 -1 7 -11 25 -3 25
12 0 5 -13 9 -29 9 -19 0 -31 6 -33 16 -2 10 -7 5 -15 -15z"/>
<path d="M806 1728 c-12 -36 -12 -44 1 -56 7 -7 13 -25 13 -39 0 -36 25 -23
26 13 0 17 4 35 8 42 4 7 2 12 -4 12 -6 0 -10 8 -8 17 4 20 -30 31 -36 11z"/>
<path d="M1906 1642 c-6 -11 41 -56 69 -66 13 -5 7 6 -20 33 -43 45 -42 44
-49 33z"/>
<path d="M913 1608 c-18 -25 -32 -91 -23 -107 8 -14 10 -14 11 -1 1 8 1 18 0
23 0 4 8 7 19 7 13 0 20 -7 20 -18 0 -25 35 -58 45 -42 4 7 -5 24 -20 40 -21
22 -26 36 -23 60 5 34 -13 58 -29 38z"/>
<path d="M1624 1613 c3 -3 1 -12 -5 -20 -14 -16 -69 -17 -69 -1 0 6 -2 9 -5 7
-2 -3 4 -27 14 -55 18 -49 44 -70 111 -89 20 -6 17 -1 -15 24 -22 17 -46 31
-52 31 -21 0 -15 16 12 34 34 22 54 20 66 -8 7 -14 23 -27 36 -31 17 -4 23
-11 19 -21 -13 -33 85 48 99 83 8 19 15 37 15 38 0 1 -12 0 -26 -3 -14 -2 -32
-15 -41 -29 -9 -13 -24 -28 -35 -34 -23 -12 -58 -3 -58 16 0 8 -8 19 -17 25
-17 11 -17 11 0 6 9 -3 17 -1 17 4 0 6 -1 10 -3 10 -1 0 -17 4 -36 10 -19 5
-31 7 -27 3z"/>
<path d="M1710 1580 c-15 -10 -13 -11 27 -14 9 0 18 5 21 12 4 14 -26 16 -48
2z"/>
<path d="M1436 1550 c-14 -17 -23 -37 -19 -46 4 -12 10 -8 23 14 10 17 23 33
29 36 6 4 11 11 11 17 0 18 -18 9 -44 -21z"/>
<path d="M850 1555 c0 -8 -4 -15 -9 -15 -5 0 -2 -21 8 -47 12 -33 26 -52 50
-65 18 -11 36 -17 39 -14 7 8 -19 37 -28 31 -4 -3 -18 3 -31 13 -17 15 -22 29
-22 65 0 26 -2 47 -4 47 -1 0 -3 -7 -3 -15z"/>
<path d="M2181 1537 c0 -10 -12 -22 -26 -27 -26 -10 -34 -30 -12 -30 27 0 49
26 44 51 -2 14 -5 17 -6 6z"/>
<path d="M1006 1471 c-4 -6 0 -19 9 -28 12 -11 15 -25 11 -47 -10 -47 -27 -59
-74 -51 -31 5 -46 15 -72 51 -37 49 -47 56 -29 22 23 -45 72 -88 101 -88 29 0
28 1 42 -103 3 -24 16 -48 36 -69 29 -28 30 -33 16 -43 -9 -7 -16 -16 -16 -20
0 -4 7 -1 16 6 14 11 18 10 30 -6 8 -10 12 -27 8 -37 -4 -13 -1 -16 10 -12 13
5 13 10 -1 47 -18 50 -63 226 -63 246 0 11 4 9 15 -5 18 -24 19 -9 1 60 -18
69 -31 93 -40 77z"/>
<path d="M1960 1466 c0 -9 -4 -14 -10 -11 -5 3 -7 0 -4 -9 7 -19 -21 -25 -66
-13 -19 5 -59 6 -90 3 -30 -4 -73 -9 -95 -11 -37 -4 -66 -11 -173 -37 -33 -8
-49 -8 -67 2 -27 14 -50 4 -24 -10 9 -6 14 -20 13 -39 -2 -29 -1 -30 21 -15
21 14 215 57 239 52 6 -1 34 2 61 5 83 12 165 16 165 8 0 -4 -6 -13 -12 -21
-7 -8 -1 -4 14 8 24 22 46 87 34 100 -3 3 -6 -2 -6 -12z"/>
<path d="M2122 1458 c-1 -10 -9 -18 -18 -18 -13 0 -14 -3 -4 -15 17 -20 19
-63 4 -76 -7 -6 -10 -18 -7 -26 4 -9 2 -14 -3 -11 -5 3 -9 -10 -10 -29 0 -19
-5 -38 -11 -41 -6 -4 -19 -23 -30 -42 -10 -19 -32 -55 -48 -79 -25 -37 -30
-40 -36 -25 -4 12 -6 3 -5 -21 2 -22 -3 -52 -11 -67 -7 -15 -13 -30 -13 -33 0
-3 -4 -22 -11 -43 -6 -21 -9 -49 -7 -62 3 -20 7 -15 22 28 9 28 21 52 25 52 5
0 8 12 8 28 1 56 11 84 46 130 81 107 122 221 114 319 -2 26 -4 40 -5 31z"/>
<path d="M1310 1439 c0 -13 20 -33 40 -41 11 -4 15 2 15 22 1 25 -1 27 -23 19
-15 -6 -21 -5 -17 1 3 6 1 10 -4 10 -6 0 -11 -5 -11 -11z"/>
<path d="M1793 1353 c-9 -3 -10 -9 -1 -23 11 -17 13 -17 24 -2 18 25 7 38 -23
25z"/>
<path d="M1661 1301 c-8 -5 -21 -7 -30 -4 -9 2 -5 -2 9 -11 15 -9 29 -11 35
-5 12 12 85 12 85 -1 0 -5 7 -10 16 -10 13 0 14 3 5 13 -6 8 -8 17 -4 20 10
10 -100 8 -116 -2z"/>
<path d="M1856 1275 c-3 -8 -13 -15 -23 -15 -16 0 -16 -1 -1 -16 15 -15 18
-15 32 -1 18 17 20 33 7 41 -5 3 -11 -1 -15 -9z"/>
<path d="M1320 1255 c0 -8 5 -15 12 -15 6 0 8 -3 5 -6 -4 -4 -13 -1 -22 6 -12
10 -15 10 -15 -4 0 -9 3 -15 8 -15 4 1 14 1 22 0 12 -1 13 -3 1 -10 -20 -13 5
-24 26 -12 12 6 26 5 45 -5 22 -11 28 -12 26 -2 -2 7 3 12 10 10 8 -1 12 3 9
10 -2 7 -15 12 -27 10 -13 -1 -27 3 -31 10 -5 7 -12 13 -16 13 -4 1 -18 6 -30
13 -19 11 -23 10 -23 -3z"/>
<path d="M1695 1246 l-30 -25 33 1 c17 1 37 7 42 13 6 7 21 11 33 9 21 -4 21
-4 -1 6 -13 5 -28 8 -32 5 -5 -3 -10 -1 -12 5 -1 5 -16 -1 -33 -14z"/>
<path d="M1111 1145 c0 -33 54 -101 226 -286 45 -48 92 -106 105 -128 12 -22
34 -46 49 -55 31 -18 69 -61 118 -131 28 -41 35 -46 43 -32 10 19 3 37 -15 38
-7 0 -23 14 -36 31 l-24 30 29 -15 c16 -8 74 -49 129 -91 55 -42 104 -76 109
-76 5 0 -16 25 -48 55 -31 30 -61 55 -67 55 -5 0 -22 11 -37 25 -15 14 -31 25
-35 25 -13 0 -127 90 -127 100 0 4 -11 11 -24 14 -14 3 -28 16 -32 29 -4 12
-15 28 -25 35 -10 7 -26 28 -35 47 -9 19 -20 32 -25 29 -5 -3 -9 2 -9 10 0 9
-5 16 -10 16 -12 0 -110 99 -110 110 0 13 -75 90 -87 90 -6 0 -23 19 -37 43
-14 23 -25 38 -25 32z"/>
<path d="M1840 1080 c-13 -8 -13 -10 2 -10 11 0 15 -6 11 -19 -3 -11 2 -21 11
-24 11 -4 13 -1 9 10 -5 12 -2 15 9 10 12 -4 14 -1 11 14 -3 10 -10 16 -15 13
-6 -4 -13 -2 -17 4 -4 7 -12 8 -21 2z"/>
<path d="M1790 1070 c0 -5 -3 -9 -7 -9 -5 1 -10 1 -13 -1 -9 -3 -45 -10 -65
-13 -11 -1 -25 -8 -30 -15 -6 -8 -22 -11 -38 -8 -23 4 -28 2 -25 -12 3 -9 11
-15 19 -13 8 2 25 4 38 5 13 1 26 6 28 12 2 7 13 10 24 7 10 -3 26 0 34 7 8 6
20 8 26 4 8 -4 9 -3 5 4 -4 7 -3 12 3 12 5 0 11 -6 13 -14 2 -12 6 -12 19 -3
15 11 14 14 -7 30 -13 10 -24 13 -24 7z"/>
<path d="M1105 1030 c-13 -21 58 -121 125 -173 99 -78 101 -77 16 8 -43 44
-91 101 -106 128 -17 30 -31 44 -35 37z"/>
<path d="M1394 1028 c-4 -6 -3 -8 4 -4 6 3 18 -4 26 -16 9 -13 16 -17 16 -9 0
11 3 11 18 -1 9 -9 23 -13 30 -11 7 3 26 0 42 -6 23 -8 33 -7 45 5 19 19 19
22 0 40 -8 9 -15 11 -15 5 0 -5 5 -13 10 -16 6 -4 7 -11 4 -17 -7 -11 -92 -2
-109 12 -23 19 -64 29 -71 18z"/>
<path d="M1042 981 c-15 -15 -58 -71 -96 -124 -48 -66 -77 -98 -95 -102 -39
-10 -86 -42 -160 -107 -83 -75 -165 -120 -261 -146 -41 -12 -109 -35 -150 -52
-41 -18 -95 -36 -120 -41 -84 -17 -160 -56 -160 -81 0 -10 50 1 67 15 7 5 24
7 38 5 13 -3 22 -2 20 3 -7 11 5 17 46 24 47 8 67 14 119 37 24 11 51 22 60
23 8 2 17 4 20 5 3 1 9 2 14 1 5 -1 12 3 16 9 4 7 19 13 34 13 14 1 26 6 26
10 0 5 9 5 20 2 11 -3 20 -3 20 2 0 9 48 33 67 33 7 0 13 4 13 8 0 5 16 14 35
22 19 7 32 17 29 22 -3 4 -1 8 5 8 6 0 26 16 46 35 19 20 35 34 35 32 0 -3 18
13 40 34 44 43 56 47 63 22 4 -17 5 -17 6 0 0 9 7 17 14 17 17 0 95 77 103
102 3 10 10 18 15 18 5 0 9 7 9 15 0 8 7 15 15 15 8 0 15 4 15 9 0 5 8 12 17
15 10 4 14 4 10 0 -4 -4 0 -12 8 -18 7 -6 15 -17 17 -25 2 -8 18 -31 36 -50
18 -20 50 -61 70 -91 20 -30 40 -57 45 -58 4 -2 4 -9 1 -14 -4 -7 -2 -8 4 -4
6 3 16 -3 23 -16 6 -12 20 -31 30 -42 11 -11 19 -26 19 -33 0 -7 7 -13 17 -13
9 0 13 -3 10 -7 -4 -3 2 -13 13 -20 11 -8 18 -18 15 -23 -3 -4 2 -10 10 -14 8
-3 15 -12 15 -19 0 -8 9 -24 20 -37 11 -12 17 -27 13 -33 -3 -6 -1 -7 5 -3 7
4 12 1 12 -8 0 -8 7 -22 16 -30 8 -9 13 -16 9 -16 -3 0 5 -15 19 -33 15 -19
26 -37 26 -41 0 -4 14 -27 31 -52 16 -24 27 -49 24 -54 -4 -6 -1 -9 7 -8 7 2
12 -3 11 -9 -2 -7 1 -13 5 -13 7 0 33 -43 37 -60 4 -22 25 -41 43 -38 19 3 17
9 -31 93 -82 143 -233 386 -264 427 -15 20 -78 102 -140 181 -109 141 -153
208 -153 235 0 7 7 26 15 42 20 39 2 39 -33 1z"/>
<path d="M1960 927 c0 -9 -7 -37 -16 -63 -12 -35 -13 -52 -5 -73 18 -43 -2
-259 -30 -312 -12 -24 -29 -49 -37 -55 -8 -6 -11 -14 -5 -17 13 -8 71 84 93
147 17 48 18 85 6 178 -2 21 -7 42 -11 48 -4 6 -1 42 5 81 7 39 9 73 6 76 -3
4 -6 -1 -6 -10z"/>
<path d="M1845 842 c-3 -3 -5 -14 -5 -24 0 -11 -4 -16 -10 -13 -5 3 -10 0 -10
-8 0 -8 -9 -24 -20 -37 -11 -13 -20 -28 -20 -34 1 -13 59 51 82 91 14 25 15
30 3 30 -8 0 -17 -3 -20 -5z"/>
<path d="M2017 678 c9 -35 11 -76 7 -119 l-6 -66 88 -128 c49 -71 83 -130 77
-132 -13 -5 60 -148 74 -148 5 0 28 -19 53 -42 64 -62 71 -33 8 32 -51 53
-100 132 -112 181 -4 15 -15 39 -25 53 -10 14 -28 44 -42 66 l-24 40 30 -19
30 -19 -20 24 c-11 13 -39 45 -62 70 -41 46 -44 59 -26 109 4 8 5 19 4 23 -2
9 10 4 51 -25 16 -11 28 -14 30 -8 2 6 13 2 25 -10 12 -11 27 -20 33 -20 6 0
22 -7 35 -16 14 -9 25 -14 25 -11 0 3 32 -10 70 -29 39 -19 75 -34 80 -34 6 0
10 -4 10 -10 0 -5 7 -10 15 -10 8 0 15 -5 15 -11 0 -5 5 -7 10 -4 6 3 10 1 10
-5 0 -6 5 -8 11 -5 5 4 18 0 27 -8 10 -9 29 -18 44 -21 36 -6 50 -15 43 -27
-3 -5 0 -6 8 -3 21 8 82 -85 90 -135 2 -11 6 -23 9 -27 4 -3 12 -46 19 -95 11
-75 16 -89 31 -89 14 0 18 8 18 40 0 105 -61 263 -123 317 -38 33 -345 188
-475 239 -59 23 -82 39 -119 82 -25 28 -49 52 -53 52 -4 0 -1 -24 7 -52z"/>
<path d="M922 405 c5 -27 156 -131 170 -117 7 7 -13 25 -59 56 -37 25 -79 53
-92 63 -22 16 -23 16 -19 -2z"/>
<path d="M1715 314 c-66 -57 -123 -104 -127 -104 -5 0 -8 -4 -8 -10 0 -18 29
-11 40 10 6 10 17 17 24 14 8 -3 17 -1 20 4 9 15 47 2 89 -30 20 -17 37 -27
37 -24 0 3 12 -4 26 -17 35 -30 79 -96 88 -129 8 -33 29 -36 50 -7 17 24 52
19 42 -6 -3 -8 -1 -15 4 -15 6 0 10 5 10 12 0 9 3 9 12 0 11 -11 78 -17 78 -7
0 2 -13 33 -29 67 -15 35 -31 73 -35 84 -14 44 -39 56 -125 55 -44 0 -83 4
-86 9 -10 16 -22 11 -30 -12 l-8 -23 -4 23 c-3 13 -10 21 -17 19 -6 -3 -25 6
-41 19 l-30 24 27 0 c15 0 39 -5 55 -12 15 -7 67 -12 114 -13 72 0 91 -3 109
-20 l23 -20 -8 30 c-16 62 -23 96 -20 93 2 -2 17 -21 34 -42 23 -29 28 -42 19
-47 -8 -5 -4 -11 14 -18 14 -5 29 -15 33 -20 8 -13 65 -15 65 -2 0 27 -18 45
-69 71 -37 18 -67 43 -85 68 -15 22 -35 43 -43 46 -9 4 -45 -8 -80 -26 -64
-32 -65 -32 -79 -13 -13 17 -12 20 4 26 17 6 37 37 30 44 -2 2 -57 -44 -123
-101z m245 -5 c0 -10 -5 -21 -12 -25 -7 -5 -9 -2 -4 7 5 8 2 8 -6 -2 -7 -9
-20 -16 -28 -16 -8 -1 -28 -2 -45 -3 -16 -1 -52 3 -80 8 l-50 10 43 1 c46 1
51 7 25 27 -10 7 -13 14 -6 14 6 0 18 -7 27 -15 11 -11 21 -13 39 -6 14 6 28
8 31 5 3 -2 4 -1 1 3 -3 4 5 12 17 19 27 14 48 2 48 -27z m-20 -136 c0 -15 1
-15 19 1 21 19 27 14 54 -41 17 -36 15 -38 -45 -65 l-36 -17 -8 42 c-6 35 -8
39 -15 22 -7 -15 -8 -12 -6 14 3 29 2 32 -8 17 -12 -15 -13 -15 -19 0 -10 26
-7 32 14 27 11 -3 20 0 20 6 0 6 7 11 15 11 8 0 15 -7 15 -17z m115 -113 c20
-39 20 -57 -1 -40 -21 19 -36 49 -29 60 9 15 13 13 30 -20z"/>
<path d="M962 140 c4 -20 91 -133 106 -138 7 -2 -10 27 -39 65 -62 83 -71 93
-67 73z"/>
</g>
</svg>
